<?xml version="1.0" encoding="iso-8859-1"?>
<!-- Uploaded to: SVG Repo, www.svgrepo.com, Generator: SVG Repo Mixer Tools -->
<svg height="800px" width="800px" version="1.1" id="Layer_1" xmlns="http://www.w3.org/2000/svg" xmlns:xlink="http://www.w3.org/1999/xlink" 
	 viewBox="0 0 512 512" xml:space="preserve">
<path style="fill:#FFF173;" d="M203.27,271.44V183.3h239.515c17.121,0,31.001-13.88,31.001-31.001s-13.88-31.001-31.001-31.001
	H203.27V33.157c0-12.679-10.279-22.957-22.957-22.957c-6.089,0-11.928,2.418-16.233,6.724L44.938,136.065
	c-4.483,4.483-6.724,10.358-6.724,16.233c0,5.875,2.242,11.751,6.724,16.233L164.08,287.673c4.305,4.305,10.144,6.724,16.233,6.724
	C192.991,294.397,203.27,284.119,203.27,271.44z"/>
<g>
	<path style="fill:#248A9C;" d="M180.313,304.596c-8.856,0-17.182-3.448-23.445-9.711L37.725,175.745
		c-6.262-6.263-9.711-14.59-9.711-23.446c0-8.856,3.449-17.183,9.711-23.445L156.867,9.711C163.129,3.449,171.456,0,180.313,0
		c18.283,0,33.157,14.873,33.157,33.157v77.941h229.316c22.718,0,41.201,18.482,41.201,41.201s-18.483,41.201-41.201,41.201H213.469
		v77.941C213.469,289.723,198.596,304.596,180.313,304.596z M180.313,20.398c-3.409,0-6.612,1.327-9.022,3.737L52.15,143.277
		c-2.41,2.409-3.737,5.614-3.737,9.021c0,3.409,1.327,6.612,3.737,9.022l119.141,119.141c2.409,2.409,5.615,3.737,9.022,3.737
		c7.034,0,12.758-5.723,12.758-12.758V183.3c0-5.632,4.567-10.199,10.199-10.199h239.515c11.471,0,20.802-9.331,20.802-20.802
		c0-11.47-9.331-20.802-20.802-20.802H203.27c-5.632,0-10.199-4.567-10.199-10.199V33.157
		C193.071,26.121,187.347,20.398,180.313,20.398z"/>
	<path style="fill:#248A9C;" d="M149.897,240.67c-2.611,0-5.22-0.996-7.212-2.987l-2.008-2.008c-3.983-3.983-3.983-10.441,0-14.425
		c3.984-3.982,10.44-3.982,14.425,0l2.008,2.008c3.983,3.983,3.983,10.441,0,14.425C155.117,239.673,152.507,240.67,149.897,240.67z
		"/>
	<path style="fill:#248A9C;" d="M126.301,217.074c-2.611,0-5.22-0.996-7.212-2.987L66.222,161.22
		c-3.983-3.983-3.983-10.441,0-14.425c3.984-3.982,10.44-3.982,14.425,0l52.867,52.867c3.983,3.983,3.983,10.441,0,14.425
		C131.521,216.077,128.912,217.074,126.301,217.074z"/>
</g>
<path style="fill:#FFF173;" d="M308.73,240.56V328.7H69.215c-17.121,0-31.001,13.88-31.001,31.001
	c0,17.121,13.88,31.001,31.001,31.001H308.73v88.139c0,12.679,10.279,22.957,22.957,22.957c6.089,0,11.928-2.418,16.233-6.724
	l119.142-119.14c4.483-4.483,6.724-10.358,6.724-16.233s-2.242-11.75-6.724-16.233L347.921,224.326
	c-4.305-4.305-10.144-6.724-16.233-6.724C319.009,217.603,308.73,227.881,308.73,240.56z"/>
<path style="fill:#248A9C;" d="M331.687,512c-18.283,0-33.157-14.874-33.157-33.157v-77.941H69.215
	c-22.718,0-41.201-18.482-41.201-41.201s18.483-41.201,41.201-41.201h229.316v-77.941c0-18.283,14.874-33.157,33.157-33.157
	c8.856,0,17.182,3.448,23.445,9.711l119.142,119.142c6.262,6.263,9.711,14.59,9.711,23.446s-3.449,17.183-9.711,23.445
	L355.133,502.289C348.871,508.551,340.544,512,331.687,512z M69.215,338.899c-11.471,0-20.802,9.331-20.802,20.802
	c0,11.47,9.331,20.802,20.802,20.802H308.73c5.632,0,10.199,4.567,10.199,10.199v88.141c0,7.034,5.723,12.758,12.758,12.758
	c3.409,0,6.612-1.327,9.022-3.737L459.85,368.724c2.41-2.409,3.737-5.614,3.737-9.021c0-3.409-1.327-6.612-3.737-9.022
	L340.709,231.539c-2.409-2.409-5.615-3.737-9.022-3.737c-7.034,0-12.758,5.723-12.758,12.758v88.141
	c0,5.632-4.567,10.199-10.199,10.199H69.215V338.899z"/>
</svg>